<svg width="28" height="28" viewBox="0 0 28 28" fill="none" xmlns="http://www.w3.org/2000/svg">
<path d="M5.33333 5.33333L9.33333 9.33333M18.6667 18.6667L22.6667 22.6667M22.6667 5.33333L18.6667 9.33333M9.33333 18.6667L5.33333 22.6667M12.6667 3.33333C12.6667 3.68696 12.8071 4.02609 13.0572 4.27614C13.3072 4.52619 13.6464 4.66667 14 4.66667C14.3536 4.66667 14.6928 4.52619 14.9428 4.27614C15.1929 4.02609 15.3333 3.68696 15.3333 3.33333C15.3333 2.97971 15.1929 2.64057 14.9428 2.39052C14.6928 2.14048 14.3536 2 14 2C13.6464 2 13.3072 2.14048 13.0572 2.39052C12.8071 2.64057 12.6667 2.97971 12.6667 3.33333ZM2 14C2 14.3536 2.14048 14.6928 2.39052 14.9428C2.64057 15.1929 2.97971 15.3333 3.33333 15.3333C3.68696 15.3333 4.02609 15.1929 4.27614 14.9428C4.52619 14.6928 4.66667 14.3536 4.66667 14C4.66667 13.6464 4.52619 13.3072 4.27614 13.0572C4.02609 12.8071 3.68696 12.6667 3.33333 12.6667C2.97971 12.6667 2.64057 12.8071 2.39052 13.0572C2.14048 13.3072 2 13.6464 2 14ZM23.3333 14C23.3333 14.3536 23.4738 14.6928 23.7239 14.9428C23.9739 15.1929 24.313 15.3333 24.6667 15.3333C25.0203 15.3333 25.3594 15.1929 25.6095 14.9428C25.8595 14.6928 26 14.3536 26 14C26 13.6464 25.8595 13.3072 25.6095 13.0572C25.3594 12.8071 25.0203 12.6667 24.6667 12.6667C24.313 12.6667 23.9739 12.8071 23.7239 13.0572C23.4738 13.3072 23.3333 13.6464 23.3333 14ZM12.6667 24.6667C12.6667 25.0203 12.8071 25.3594 13.0572 25.6095C13.3072 25.8595 13.6464 26 14 26C14.3536 26 14.6928 25.8595 14.9428 25.6095C15.1929 25.3594 15.3333 25.0203 15.3333 24.6667C15.3333 24.313 15.1929 23.9739 14.9428 23.7239C14.6928 23.4738 14.3536 23.3333 14 23.3333C13.6464 23.3333 13.3072 23.4738 13.0572 23.7239C12.8071 23.9739 12.6667 24.313 12.6667 24.6667Z" stroke="#38BDF8" stroke-width="2.66667" stroke-linecap="round" stroke-linejoin="round"/>
</svg>
